<svg width="145" height="168" viewBox="0 0 145 168" fill="none" xmlns="http://www.w3.org/2000/svg">
<path d="M112.434 156.485H16.5566V163.638H119.588V16.3702H112.434V156.485ZM112.434 156.485H9.40269V149.082L105 149L105.031 9.21714H112.434V156.485ZM41.2519 94.7567H18.5733V132.508H41.2519M41.2519 94.7567V132.508M41.2519 94.7567H63.9295M41.2519 132.508H63.9295M63.9295 94.7567V132.508M63.9295 94.7567H86.6088V132.508H63.9295M18.5733 113.6H88.2031M18.5733 104.146H88.2031M18.5731 123.055H88.2029M105.031 149.082H2V1.81445H105.031V149.082ZM34.0612 78.118H41.8053L41.6763 48.2712H33.9322L34.0612 78.118ZM18.572 78.1179H26.3161L26.1872 28.869H18.4431L18.572 78.1179ZM65.0379 78.1184H72.7816L72.763 45.9826H65.0193L65.0379 78.1184ZM49.3914 78.0741L57.1346 78.1591L57.5139 29.987L49.7707 29.902L49.3914 78.0741ZM88.1763 26.8572H80.4326L80.5253 78.1185H88.2687L88.1763 26.8572Z" stroke="#0E0C50" stroke-width="3.14183" stroke-miterlimit="10"/>
<path d="M140.831 167.612H81.9801C79.9252 167.612 78.2595 165.946 78.2595 163.892V65.2658C78.2595 63.2109 79.9252 61.5452 81.9801 61.5452H140.831C142.886 61.5452 144.551 63.2109 144.551 65.2658V163.892C144.551 165.946 142.886 167.612 140.831 167.612Z" fill="#0E0C50"/>
<path d="M134.607 84.7481H88.2028V71.4893H134.607V84.7481Z" fill="#484F80"/>
<path d="M95.6441 99.2629H90.0631C89.0359 99.2629 88.2028 98.4303 88.2028 97.4026V93.3062C88.2028 92.279 89.0359 91.4459 90.0631 91.4459H95.6441C96.6717 91.4459 97.5044 92.279 97.5044 93.3062V97.4026C97.5044 98.4303 96.6717 99.2629 95.6441 99.2629Z" fill="#A4A3C2"/>
<path d="M132.746 99.2629H127.166C126.138 99.2629 125.305 98.4303 125.305 97.4026V93.3062C125.305 92.279 126.138 91.4459 127.166 91.4459H132.746C133.774 91.4459 134.607 92.279 134.607 93.3062V97.4026C134.607 98.4303 133.774 99.2629 132.746 99.2629Z" fill="#A4A3C2"/>
<path d="M120.38 99.2629H114.799C113.771 99.2629 112.938 98.4303 112.938 97.4026V93.3062C112.938 92.279 113.771 91.4459 114.799 91.4459H120.38C121.407 91.4459 122.24 92.279 122.24 93.3062V97.4026C122.24 98.4303 121.407 99.2629 120.38 99.2629Z" fill="#A4A3C2"/>
<path d="M108.013 99.2629H102.432C101.404 99.2629 100.571 98.4303 100.571 97.4026V93.3062C100.571 92.279 101.404 91.4459 102.432 91.4459H108.013C109.04 91.4459 109.873 92.279 109.873 93.3062V97.4026C109.873 98.4303 109.04 99.2629 108.013 99.2629Z" fill="#484F80"/>
<path d="M95.6441 115.204H90.0631C89.0359 115.204 88.2028 114.372 88.2028 113.344V109.248C88.2028 108.22 89.0359 107.387 90.0631 107.387H95.6441C96.6717 107.387 97.5044 108.22 97.5044 109.248V113.344C97.5044 114.372 96.6717 115.204 95.6441 115.204Z" fill="white"/>
<path d="M132.746 115.204H127.166C126.138 115.204 125.305 114.372 125.305 113.344V109.248C125.305 108.22 126.138 107.387 127.166 107.387H132.746C133.774 107.387 134.607 108.22 134.607 109.248V113.344C134.607 114.372 133.774 115.204 132.746 115.204Z" fill="#484F80"/>
<path d="M120.38 115.204H114.799C113.771 115.204 112.938 114.372 112.938 113.344V109.248C112.938 108.22 113.771 107.387 114.799 107.387H120.38C121.407 107.387 122.24 108.22 122.24 109.248V113.344C122.24 114.372 121.407 115.204 120.38 115.204Z" fill="#484F80"/>
<path d="M108.013 115.204H102.432C101.404 115.204 100.571 114.372 100.571 113.344V109.248C100.571 108.22 101.404 107.387 102.432 107.387H108.013C109.04 107.387 109.873 108.22 109.873 109.248V113.344C109.873 114.372 109.04 115.204 108.013 115.204Z" fill="#484F80"/>
<path d="M95.6441 136.417H90.0631C89.0359 136.417 88.2028 135.584 88.2028 134.557V130.461C88.2028 129.434 89.0359 128.6 90.0631 128.6H95.6441C96.6717 128.6 97.5044 129.434 97.5044 130.461V134.557C97.5044 135.584 96.6717 136.417 95.6441 136.417Z" fill="#484F80"/>
<path d="M132.746 136.417H127.166C126.138 136.417 125.305 135.584 125.305 134.557V130.461C125.305 129.434 126.138 128.6 127.166 128.6H132.746C133.774 128.6 134.607 129.434 134.607 130.461V134.557C134.607 135.584 133.774 136.417 132.746 136.417Z" fill="#484F80"/>
<path d="M120.38 136.417H114.799C113.771 136.417 112.938 135.584 112.938 134.557V130.461C112.938 129.434 113.771 128.6 114.799 128.6H120.38C121.407 128.6 122.24 129.434 122.24 130.461V134.557C122.24 135.584 121.407 136.417 120.38 136.417Z" fill="#484F80"/>
<path d="M108.013 136.417H102.432C101.404 136.417 100.571 135.584 100.571 134.557V130.461C100.571 129.434 101.404 128.6 102.432 128.6H108.013C109.04 128.6 109.873 129.434 109.873 130.461V134.557C109.873 135.584 109.04 136.417 108.013 136.417Z" fill="#484F80"/>
<path d="M95.6441 147.025H90.0631C89.0359 147.025 88.2028 146.191 88.2028 145.164V141.068C88.2028 140.041 89.0359 139.208 90.0631 139.208H95.6441C96.6717 139.208 97.5044 140.041 97.5044 141.068V145.164C97.5044 146.191 96.6717 147.025 95.6441 147.025Z" fill="#484F80"/>
<path d="M132.746 147.025H127.166C126.138 147.025 125.305 146.191 125.305 145.164V141.068C125.305 140.041 126.138 139.208 127.166 139.208H132.746C133.774 139.208 134.607 140.041 134.607 141.068V145.164C134.607 146.191 133.774 147.025 132.746 147.025Z" fill="#484F80"/>
<path d="M120.38 147.025H114.799C113.771 147.025 112.938 146.191 112.938 145.164V141.068C112.938 140.041 113.771 139.208 114.799 139.208H120.38C121.407 139.208 122.24 140.041 122.24 141.068V145.164C122.24 146.191 121.407 147.025 120.38 147.025Z" fill="#484F80"/>
<path d="M108.013 147.025H102.432C101.404 147.025 100.571 146.191 100.571 145.164V141.068C100.571 140.041 101.404 139.208 102.432 139.208H108.013C109.04 139.208 109.873 140.041 109.873 141.068V145.164C109.873 146.191 109.04 147.025 108.013 147.025Z" fill="#484F80"/>
<path d="M95.6441 157.631H90.0631C89.0359 157.631 88.2028 156.798 88.2028 155.771V151.674C88.2028 150.647 89.0359 149.814 90.0631 149.814H95.6441C96.6717 149.814 97.5044 150.647 97.5044 151.674V155.771C97.5044 156.798 96.6717 157.631 95.6441 157.631Z" fill="#484F80"/>
<path d="M132.746 157.631H127.166C126.138 157.631 125.305 156.798 125.305 155.771V151.674C125.305 150.647 126.138 149.814 127.166 149.814H132.746C133.774 149.814 134.607 150.647 134.607 151.674V155.771C134.607 156.798 133.774 157.631 132.746 157.631Z" fill="#484F80"/>
<path d="M120.38 157.631H114.799C113.771 157.631 112.938 156.798 112.938 155.771V151.674C112.938 150.647 113.771 149.814 114.799 149.814H120.38C121.407 149.814 122.24 150.647 122.24 151.674V155.771C122.24 156.798 121.407 157.631 120.38 157.631Z" fill="#484F80"/>
<path d="M108.013 157.631H102.432C101.404 157.631 100.571 156.798 100.571 155.771V151.674C100.571 150.647 101.404 149.814 102.432 149.814H108.013C109.04 149.814 109.873 150.647 109.873 151.674V155.771C109.873 156.798 109.04 157.631 108.013 157.631Z" fill="#484F80"/>
<path d="M95.6441 125.81H90.0631C89.0359 125.81 88.2028 124.977 88.2028 123.95V119.853C88.2028 118.826 89.0359 117.993 90.0631 117.993H95.6441C96.6717 117.993 97.5044 118.826 97.5044 119.853V123.95C97.5044 124.977 96.6717 125.81 95.6441 125.81Z" fill="#484F80"/>
<path d="M132.746 125.81H127.166C126.138 125.81 125.305 124.977 125.305 123.95V119.853C125.305 118.826 126.138 117.993 127.166 117.993H132.746C133.774 117.993 134.607 118.826 134.607 119.853V123.95C134.607 124.977 133.774 125.81 132.746 125.81Z" fill="#484F80"/>
<path d="M120.38 125.81H114.799C113.771 125.81 112.938 124.977 112.938 123.95V119.853C112.938 118.826 113.771 117.993 114.799 117.993H120.38C121.407 117.993 122.24 118.826 122.24 119.853V123.95C122.24 124.977 121.407 125.81 120.38 125.81Z" fill="#484F80"/>
<path d="M108.013 125.81H102.432C101.404 125.81 100.571 124.977 100.571 123.95V119.853C100.571 118.826 101.404 117.993 102.432 117.993H108.013C109.04 117.993 109.873 118.826 109.873 119.853V123.95C109.873 124.977 109.04 125.81 108.013 125.81Z" fill="#484F80"/>
</svg>
