<svg width="361" height="47" viewBox="0 0 361 47" fill="none" xmlns="http://www.w3.org/2000/svg">
<path d="M0.235474 29.5923V0.980682L360.295 1.21492V46.5754C359.511 46.1046 353.515 43.2166 335.81 35.4315C313.679 25.7001 300.495 21.6192 284.956 18.1662C269.417 14.7131 254.192 13.6144 238.811 13.9283C226.505 14.1795 209.198 19.1602 202.083 21.6192C193.711 24.5491 174.584 31.1622 165.041 34.1758C153.112 37.9428 136.945 41.3959 111.832 44.135C91.7416 46.3262 77.3035 45.048 72.5957 44.135C64.6148 42.8934 45.8863 39.4261 34.8194 35.4889C23.7526 31.5516 7.15226 29.9173 0.235474 29.5923Z" fill="#414772"/>
</svg>
