<svg width="360" height="46" viewBox="0 0 360 46" fill="none" xmlns="http://www.w3.org/2000/svg">
<g clip-path="url(#clip0_2062_105)">
<path d="M0.235596 28.5923V-0.0192871L360.295 0.214951V45.5754C359.511 45.1046 353.515 42.2166 335.81 34.4315C313.679 24.7001 300.495 20.6192 284.956 17.1662C269.417 13.7131 254.192 12.6144 238.811 12.9283C226.505 13.1795 209.198 18.1602 202.083 20.6192C193.711 23.5491 174.584 30.1622 165.041 33.1758C153.112 36.9428 136.945 40.3959 111.832 43.135C91.7417 45.3262 77.3036 44.048 72.5958 43.135C64.6149 41.8934 45.8864 38.4261 34.8195 34.4889C23.7527 30.5516 7.15238 28.9173 0.235596 28.5923Z" fill="#414772"/>
</g>
<defs>
<clipPath id="clip0_2062_105">
<rect width="361" height="47" fill="white" transform="translate(0 -1)"/>
</clipPath>
</defs>
</svg>
